<?xml version="1.0" encoding="UTF-8" standalone="no"?>
<svg
   xmlns:dc="http://purl.org/dc/elements/1.1/"
   xmlns:cc="http://creativecommons.org/ns#"
   xmlns:rdf="http://www.w3.org/1999/02/22-rdf-syntax-ns#"
   xmlns:svg="http://www.w3.org/2000/svg"
   xmlns="http://www.w3.org/2000/svg"
   id="svg8"
   version="1.1"
   viewBox="0 0 210 297"
   height="297mm"
   width="210mm">
  <defs
     id="defs2" />
  <metadata
     id="metadata5">
    <rdf:RDF>
      <cc:Work
         rdf:about="">
        <dc:format>image/svg+xml</dc:format>
        <dc:type
           rdf:resource="http://purl.org/dc/dcmitype/StillImage" />
        <dc:title></dc:title>
      </cc:Work>
    </rdf:RDF>
  </metadata>
  <g
     id="layer1">
    <path
       id="path24"
       d="m 19.04467,212.32261 c -2.30585,-1.5171 -2.16919,2.03786 -2.16919,-56.42662 0,-56.679449 -0.0753,-54.1058 1.62999,-55.73481 0.57167,-0.546109 6.73418,-3.231089 12.38779,-5.397309 l 1.92745,-0.73852 0.17522,-5.49865 c 0.26135,-8.201562 0.17628,-8.124233 11.214227,-10.193775 3.727833,-0.698947 5.686002,-0.823736 13.141671,-0.837508 7.820252,-0.01443 9.193911,0.07624 12.791228,0.844437 13.376532,2.856516 23.621923,8.738416 32.264634,18.523216 1.70799,1.93369 3.15513,3.440549 3.21586,3.348569 1.01718,-1.540529 4.92607,-5.878219 7.12986,-7.911979 7.56484,-6.9812 16.78363,-11.606036 27.82899,-13.961123 3.59478,-0.76648 4.97649,-0.857554 12.79123,-0.84312 8.79821,0.01624 11.94392,0.353881 19.27445,2.068738 2.07533,0.485488 3.87063,1.555075 4.4726,2.664635 0.26487,0.48821 0.50182,2.93922 0.60884,6.29791 l 0.17523,5.49865 1.92744,0.73852 c 5.65361,2.16622 11.81612,4.8512 12.38779,5.397309 1.70526,1.62901 1.63,-0.944639 1.63,55.73481 0,58.0066 0.11722,54.75088 -2.02951,56.36444 -1.68728,1.26822 -3.2554,1.02522 -9.3963,-1.45611 -34.30307,-13.8607 -59.12282,-15.54112 -70.38719,-4.76555 -1.29291,1.2368 -2.69634,2.38743 -3.11873,2.55695 -1.01925,0.40905 -6.12624,0.39523 -7.15931,-0.0194 -0.44893,-0.18017 -1.64162,-1.15157 -2.650407,-2.15866 -3.783052,-3.7767 -8.145001,-5.76233 -15.028521,-6.84124 -13.197599,-2.06856 -32.94234,1.89883 -55.289422,11.10953 -5.89359,2.42914 -8.00298,2.78337 -9.74592,1.63663 z M 187.89242,155.5664 v -50.8303 l -4.54135,-1.88344 c -2.49775,-1.03589 -4.7844,-1.88344 -5.08145,-1.88344 -0.48325,0 -0.5401,4.31601 -0.5401,41.00652 v 41.00652 l -0.79312,1.25695 c -0.43622,0.69132 -1.40993,1.57584 -2.1638,1.96561 -1.35888,0.70255 -1.40408,0.70173 -5.25204,-0.096 -6.45478,-1.33811 -9.54298,-1.65296 -16.32216,-1.66406 -8.6661,-0.0142 -14.47238,0.9868 -21.22195,3.65863 -2.81295,1.11351 -8.686,4.29025 -9.96761,5.39149 l -0.87611,0.75282 1.05133,-0.24656 c 13.77452,-3.23038 33.79867,-0.0217 58.1738,9.3219 3.4694,1.3299 6.54455,2.56046 6.83367,2.73457 0.28912,0.17411 0.56509,0.32163 0.61328,0.32781 0.0482,0.006 0.0876,-22.86238 0.0876,-50.81904 z M 29.00181,203.86133 c 25.299465,-9.83366 45.434269,-13.16813 59.539586,-9.86017 l 1.051334,0.24656 -0.876112,-0.75282 c -1.281614,-1.10124 -7.154659,-4.27798 -9.967611,-5.39149 -6.749573,-2.67183 -12.555854,-3.67282 -21.221956,-3.65863 -6.779172,0.0111 -9.867377,0.32595 -16.322151,1.66406 -3.84744,0.7976 -3.89319,0.79844 -5.23405,0.096 -0.74398,-0.38977 -1.67826,-1.17861 -2.07619,-1.75299 -0.71946,-1.03848 -0.72402,-1.27514 -0.81561,-42.26347 -0.082,-36.6901 -0.15095,-41.21914 -0.62771,-41.21914 -0.29458,0 -2.57921,0.84755 -5.07695,1.88344 l -4.54135,1.88344 v 50.64534 c 0,27.85493 0.13447,50.64533 0.29883,50.64533 0.16435,0 2.80583,-0.97445 5.86994,-2.16544 z m 73.38213,-51.7796 V 107.0148 l -1.13116,-1.82055 c -1.858627,-2.99134 -8.196039,-9.399529 -11.813941,-11.945889 -9.639858,-6.78475 -19.036535,-9.64332 -31.749886,-9.65865 -6.566747,-0.008 -11.985724,0.60734 -17.946963,2.03765 l -0.7885,0.18919 v 47.157879 c 0,25.93683 0.0394,47.15677 0.0876,47.15542 0.0482,-0.001 1.90116,-0.33479 4.117722,-0.74098 22.704705,-4.16067 43.547663,1.63158 56.947248,15.82561 0.96372,1.02086 1.87049,1.87368 2.01505,1.89515 0.14456,0.0215 0.26282,-20.24108 0.26282,-45.0279 z m 8.69873,42.68817 c 13.79354,-14.02046 33.95261,-19.50993 56.48396,-15.38103 2.21656,0.40619 4.06954,0.73963 4.11773,0.74098 0.0482,0.001 0.0876,-21.21859 0.0876,-47.15542 V 85.816551 l -0.7885,-0.18919 c -5.96124,-1.43031 -11.38022,-2.04557 -17.94697,-2.03765 -12.58531,0.0152 -22.25634,2.94128 -31.57466,9.55335 -4.84604,3.43864 -11.01779,9.873989 -12.71509,13.258179 -0.30028,0.59871 -0.40525,12.45609 -0.40525,45.77771 0,24.73335 0.0902,44.96972 0.20045,44.96972 0.11025,0 1.25357,-1.07045 2.54072,-2.37877 z"
       style="fill:#000000;stroke-width:0.360051" />
  </g>
</svg>
